<svg id="visual" viewBox="0 0 900 600" width="900" height="600" xmlns="http://www.w3.org/2000/svg" xmlns:xlink="http://www.w3.org/1999/xlink" version="1.1"><rect x="0" y="0" width="900" height="600" fill="#1d1d1d"></rect><defs><linearGradient id="grad1_0" x1="33.3%" y1="0%" x2="100%" y2="100%"><stop offset="20%" stop-color="#7329ff" stop-opacity="1"></stop><stop offset="80%" stop-color="#7329ff" stop-opacity="1"></stop></linearGradient></defs><defs><linearGradient id="grad1_1" x1="33.3%" y1="0%" x2="100%" y2="100%"><stop offset="20%" stop-color="#7329ff" stop-opacity="1"></stop><stop offset="80%" stop-color="#692bdb" stop-opacity="1"></stop></linearGradient></defs><defs><linearGradient id="grad1_2" x1="33.3%" y1="0%" x2="100%" y2="100%"><stop offset="20%" stop-color="#5e2bb8" stop-opacity="1"></stop><stop offset="80%" stop-color="#692bdb" stop-opacity="1"></stop></linearGradient></defs><defs><linearGradient id="grad1_3" x1="33.3%" y1="0%" x2="100%" y2="100%"><stop offset="20%" stop-color="#5e2bb8" stop-opacity="1"></stop><stop offset="80%" stop-color="#522a96" stop-opacity="1"></stop></linearGradient></defs><defs><linearGradient id="grad1_4" x1="33.3%" y1="0%" x2="100%" y2="100%"><stop offset="20%" stop-color="#462875" stop-opacity="1"></stop><stop offset="80%" stop-color="#522a96" stop-opacity="1"></stop></linearGradient></defs><defs><linearGradient id="grad1_5" x1="33.3%" y1="0%" x2="100%" y2="100%"><stop offset="20%" stop-color="#462875" stop-opacity="1"></stop><stop offset="80%" stop-color="#3a2556" stop-opacity="1"></stop></linearGradient></defs><defs><linearGradient id="grad1_6" x1="33.3%" y1="0%" x2="100%" y2="100%"><stop offset="20%" stop-color="#2c2239" stop-opacity="1"></stop><stop offset="80%" stop-color="#3a2556" stop-opacity="1"></stop></linearGradient></defs><defs><linearGradient id="grad1_7" x1="33.3%" y1="0%" x2="100%" y2="100%"><stop offset="20%" stop-color="#2c2239" stop-opacity="1"></stop><stop offset="80%" stop-color="#1d1d1d" stop-opacity="1"></stop></linearGradient></defs><defs><linearGradient id="grad2_0" x1="0%" y1="0%" x2="66.7%" y2="100%"><stop offset="20%" stop-color="#7329ff" stop-opacity="1"></stop><stop offset="80%" stop-color="#7329ff" stop-opacity="1"></stop></linearGradient></defs><defs><linearGradient id="grad2_1" x1="0%" y1="0%" x2="66.7%" y2="100%"><stop offset="20%" stop-color="#692bdb" stop-opacity="1"></stop><stop offset="80%" stop-color="#7329ff" stop-opacity="1"></stop></linearGradient></defs><defs><linearGradient id="grad2_2" x1="0%" y1="0%" x2="66.7%" y2="100%"><stop offset="20%" stop-color="#692bdb" stop-opacity="1"></stop><stop offset="80%" stop-color="#5e2bb8" stop-opacity="1"></stop></linearGradient></defs><defs><linearGradient id="grad2_3" x1="0%" y1="0%" x2="66.7%" y2="100%"><stop offset="20%" stop-color="#522a96" stop-opacity="1"></stop><stop offset="80%" stop-color="#5e2bb8" stop-opacity="1"></stop></linearGradient></defs><defs><linearGradient id="grad2_4" x1="0%" y1="0%" x2="66.7%" y2="100%"><stop offset="20%" stop-color="#522a96" stop-opacity="1"></stop><stop offset="80%" stop-color="#462875" stop-opacity="1"></stop></linearGradient></defs><defs><linearGradient id="grad2_5" x1="0%" y1="0%" x2="66.7%" y2="100%"><stop offset="20%" stop-color="#3a2556" stop-opacity="1"></stop><stop offset="80%" stop-color="#462875" stop-opacity="1"></stop></linearGradient></defs><defs><linearGradient id="grad2_6" x1="0%" y1="0%" x2="66.7%" y2="100%"><stop offset="20%" stop-color="#3a2556" stop-opacity="1"></stop><stop offset="80%" stop-color="#2c2239" stop-opacity="1"></stop></linearGradient></defs><defs><linearGradient id="grad2_7" x1="0%" y1="0%" x2="66.7%" y2="100%"><stop offset="20%" stop-color="#1d1d1d" stop-opacity="1"></stop><stop offset="80%" stop-color="#2c2239" stop-opacity="1"></stop></linearGradient></defs><g transform="translate(900, 0)"><path d="M0 432.7C-42.4 420.6 -84.9 408.5 -129.2 397.5C-173.4 386.6 -219.5 376.8 -254.3 350C-289.1 323.3 -312.5 279.7 -328.5 238.6C-344.4 197.6 -352.9 159.2 -369 119.9C-385.1 80.6 -408.9 40.3 -432.7 0L0 0Z" fill="#251f2b"></path><path d="M0 378.6C-37.1 368 -74.3 357.4 -113 347.8C-151.8 338.3 -192.1 329.7 -222.5 306.3C-252.9 282.9 -273.4 244.7 -287.4 208.8C-301.4 172.9 -308.8 139.3 -322.9 104.9C-337 70.5 -357.8 35.2 -378.6 0L0 0Z" fill="#332447"></path><path d="M0 324.5C-31.8 315.4 -63.7 306.4 -96.9 298.2C-130.1 289.9 -164.7 282.6 -190.7 262.5C-216.8 242.5 -234.4 209.7 -246.3 179C-258.3 148.2 -264.7 119.4 -276.8 89.9C-288.8 60.4 -306.7 30.2 -324.5 0L0 0Z" fill="#402766"></path><path d="M0 270.4C-26.5 262.9 -53.1 255.3 -80.7 248.5C-108.4 241.6 -137.2 235.5 -158.9 218.8C-180.7 202.1 -195.3 174.8 -205.3 149.2C-215.3 123.5 -220.6 99.5 -230.6 74.9C-240.7 50.4 -255.6 25.2 -270.4 0L0 0Z" fill="#4c2985"></path><path d="M0 216.3C-21.2 210.3 -42.4 204.2 -64.6 198.8C-86.7 193.3 -109.8 188.4 -127.2 175C-144.5 161.7 -156.3 139.8 -164.2 119.3C-172.2 98.8 -176.4 79.6 -184.5 59.9C-192.6 40.3 -204.4 20.1 -216.3 0L0 0Z" fill="#582ba7"></path><path d="M0 162.2C-15.9 157.7 -31.8 153.2 -48.4 149.1C-65 145 -82.3 141.3 -95.4 131.3C-108.4 121.2 -117.2 104.9 -123.2 89.5C-129.2 74.1 -132.3 59.7 -138.4 45C-144.4 30.2 -153.3 15.1 -162.2 0L0 0Z" fill="#632bc9"></path><path d="M0 108.2C-10.6 105.1 -21.2 102.1 -32.3 99.4C-43.4 96.6 -54.9 94.2 -63.6 87.5C-72.3 80.8 -78.1 69.9 -82.1 59.7C-86.1 49.4 -88.2 39.8 -92.3 30C-96.3 20.1 -102.2 10.1 -108.2 0L0 0Z" fill="#6e2aed"></path><path d="M0 54.1C-5.3 52.6 -10.6 51.1 -16.1 49.7C-21.7 48.3 -27.4 47.1 -31.8 43.8C-36.1 40.4 -39.1 35 -41.1 29.8C-43.1 24.7 -44.1 19.9 -46.1 15C-48.1 10.1 -51.1 5 -54.1 0L0 0Z" fill="#7329ff"></path></g><g transform="translate(0, 600)"><path d="M0 -432.7C41.3 -419.8 82.6 -407 129.2 -397.5C175.7 -388.1 227.6 -381.9 254.3 -350C281.1 -318.2 282.8 -260.6 305 -221.6C327.2 -182.6 370 -162.1 394.7 -128.2C419.4 -94.4 426 -47.2 432.7 0L0 0Z" fill="#251f2b"></path><path d="M0 -378.6C36.1 -367.4 72.3 -356.2 113 -347.8C153.8 -339.5 199.1 -334.2 222.5 -306.3C245.9 -278.4 247.4 -228 266.9 -193.9C286.3 -159.8 323.7 -141.8 345.4 -112.2C367 -82.6 372.8 -41.3 378.6 0L0 0Z" fill="#332447"></path><path d="M0 -324.5C31 -314.9 62 -305.3 96.9 -298.2C131.8 -291 170.7 -286.4 190.7 -262.5C210.8 -238.6 212.1 -195.5 228.7 -166.2C245.4 -136.9 277.5 -121.6 296 -96.2C314.5 -70.8 319.5 -35.4 324.5 0L0 0Z" fill="#402766"></path><path d="M0 -270.4C25.8 -262.4 51.6 -254.4 80.7 -248.5C109.8 -242.5 142.2 -238.7 158.9 -218.8C175.7 -198.9 176.7 -162.9 190.6 -138.5C204.5 -114.1 231.2 -101.3 246.7 -80.2C262.1 -59 266.3 -29.5 270.4 0L0 0Z" fill="#4c2985"></path><path d="M0 -216.3C20.7 -209.9 41.3 -203.5 64.6 -198.8C87.9 -194 113.8 -190.9 127.2 -175C140.5 -159.1 141.4 -130.3 152.5 -110.8C163.6 -91.3 185 -81 197.3 -64.1C209.7 -47.2 213 -23.6 216.3 0L0 0Z" fill="#582ba7"></path><path d="M0 -162.2C15.5 -157.4 31 -152.6 48.4 -149.1C65.9 -145.5 85.3 -143.2 95.4 -131.3C105.4 -119.3 106 -97.7 114.4 -83.1C122.7 -68.5 138.7 -60.8 148 -48.1C157.3 -35.4 159.8 -17.7 162.2 0L0 0Z" fill="#632bc9"></path><path d="M0 -108.2C10.3 -105 20.7 -101.8 32.3 -99.4C43.9 -97 56.9 -95.5 63.6 -87.5C70.3 -79.5 70.7 -65.2 76.2 -55.4C81.8 -45.6 92.5 -40.5 98.7 -32.1C104.8 -23.6 106.5 -11.8 108.2 0L0 0Z" fill="#6e2aed"></path><path d="M0 -54.1C5.2 -52.5 10.3 -50.9 16.1 -49.7C22 -48.5 28.4 -47.7 31.8 -43.8C35.1 -39.8 35.3 -32.6 38.1 -27.7C40.9 -22.8 46.2 -20.3 49.3 -16C52.4 -11.8 53.3 -5.9 54.1 0L0 0Z" fill="#7329ff"></path></g></svg>